<?xml version="1.0" encoding="UTF-8"?>
<svg id="_レイヤー_1" data-name="レイヤー 1" xmlns="http://www.w3.org/2000/svg" version="1.1" viewBox="0 0 720 720">
  <defs>
    <style>
      .cls-1 {
        fill: #000;
      }

      .cls-1, .cls-2, .cls-3, .cls-4 {
        stroke-width: 0px;
      }

      .cls-2 {
        fill: aqua;
      }

      .cls-3 {
        fill: red;
      }

      .cls-4 {
        fill: #ffe000;
      }

      .cls-5 {
        fill: gray;
        stroke: #000;
        stroke-linecap: round;
        stroke-linejoin: round;
        stroke-width: 40px;
      }
    </style>
  </defs>
  <path class="cls-5" d="M654,74.2H66c-25.2,0-45.7,20.5-45.7,45.7v268.6c0,25.2,20.5,45.7,45.7,45.7h424.5l138.7,222.8v-222.8h24.8c25.2,0,45.7-20.5,45.7-45.7V120c0-25.2-20.5-45.7-45.7-45.7Z"/>
  <circle class="cls-2" cx="183.3" cy="254.3" r="66.3"/>
  <circle class="cls-4" cx="360" cy="254.3" r="66.3"/>
  <circle class="cls-3" cx="536.7" cy="254.3" r="66.3"/>
  <g>
    <path class="cls-1" d="M74.3,559.5c-6.1,3-14.1,4.5-24,4.5s-23-3.8-30.4-11.4c-7.4-7.6-11.1-17.7-11.1-30.3s4.1-24.3,12.5-32.7c8.3-8.4,19.1-12.5,32.3-12.5s15.1,1,20.7,3.1v18.2c-5.6-3.4-12-5-19.2-5s-14.3,2.5-19.1,7.4c-4.8,5-7.3,11.7-7.3,20.2s2.3,14.6,6.9,19.4c4.6,4.8,10.7,7.2,18.5,7.2s14.1-1.8,20.3-5.4v17.3Z"/>
    <path class="cls-1" d="M144.8,562.5h-18.5v-34.1c0-8.8-3.2-13.2-9.6-13.2s-5.9,1.2-8,3.7c-2,2.5-3,5.6-3,9.4v34.2h-18.5v-88.8h18.5v37.7h.2c4.5-6.9,10.7-10.4,18.5-10.4,13.6,0,20.4,8.2,20.4,24.6v36.9Z"/>
    <path class="cls-1" d="M209.3,562.5h-17.5v-8.6h-.2c-4,6.7-10,10.1-17.9,10.1s-10.4-1.6-13.7-5c-3.3-3.3-5-7.7-5-13.2,0-11.6,6.9-18.4,20.7-20.2l16.3-2.2c0-6.6-3.6-9.8-10.7-9.8s-13.9,2.1-20.4,6.4v-13.9c2.6-1.3,6.1-2.5,10.6-3.5,4.5-1,8.5-1.5,12.2-1.5,17.1,0,25.7,8.5,25.7,25.6v35.9ZM191.9,538.1v-4l-10.9,1.4c-6,.8-9,3.5-9,8.1s.7,3.8,2.2,5.2,3.4,2,5.9,2,6.3-1.2,8.5-3.6c2.2-2.4,3.3-5.4,3.3-9.1Z"/>
    <path class="cls-1" d="M260.3,561.8c-2.7,1.4-6.9,2.2-12.4,2.2-13,0-19.6-6.8-19.6-20.3v-27.5h-9.7v-13.7h9.7v-12.9l18.5-5.3v18.2h13.5v13.7h-13.5v24.3c0,6.2,2.5,9.4,7.4,9.4s4-.6,6-1.7v13.7Z"/>
    <path class="cls-1" d="M289.4,555.5h-.2v7h-18.5v-88.8h18.5v37.9h.2c4.6-7,11.1-10.5,19.5-10.5s13.7,2.7,17.9,8c4.2,5.3,6.3,12.6,6.3,21.8s-2.4,18-7.3,24.1c-4.9,6.1-11.4,9.1-19.6,9.1s-13-2.8-16.8-8.4ZM288.9,530.2v6.2c0,3.9,1.1,7.1,3.3,9.6,2.2,2.5,5.1,3.8,8.6,3.8s7.5-1.6,9.8-4.9c2.3-3.3,3.5-7.9,3.5-13.9s-1.1-8.8-3.2-11.6c-2.1-2.8-5.2-4.2-9.1-4.2s-6.8,1.4-9.2,4.2c-2.4,2.8-3.7,6.4-3.7,10.8Z"/>
    <path class="cls-1" d="M373.7,564c-10,0-17.9-2.8-23.6-8.4-5.7-5.6-8.6-13.2-8.6-22.8s3-17.7,8.9-23.3c5.9-5.6,14-8.4,24.1-8.4s17.8,2.8,23.4,8.4c5.7,5.6,8.5,13,8.5,22.2s-2.9,17.8-8.8,23.6c-5.8,5.8-13.8,8.7-24,8.7ZM374.2,515.2c-4.4,0-7.8,1.5-10.2,4.5-2.4,3-3.6,7.3-3.6,12.8,0,11.5,4.6,17.3,13.9,17.3s13.3-5.9,13.3-17.8-4.5-16.8-13.4-16.8Z"/>
    <path class="cls-1" d="M476.4,502.5l-19.8,29.1,19.7,30.9h-21.3l-8.7-16.2c-.7-1.3-1.5-3.1-2.5-5.4h-.2c-.6,1.6-1.4,3.4-2.4,5.3l-8.7,16.3h-21.3l20.3-29.9-19-30.1h21.4l8.6,16.8c1.1,2.2,1.9,4.1,2.4,5.6h.2c.6-1.8,1.5-3.8,2.5-5.7l8.7-16.7h20.2Z"/>
    <path class="cls-1" d="M88,672.5h-20.6l-6-18.7h-29.9l-5.9,18.7H5.1l30.6-84h22.4l29.9,84ZM57.1,639.3l-9-28.2c-.7-2.1-1.1-4.6-1.4-7.6h-.5c-.2,2.5-.7,4.9-1.5,7.3l-9.1,28.5h21.5Z"/>
    <path class="cls-1" d="M92.7,670.9v-15c3,1.8,6.1,3.2,9.1,4.1,3,.9,5.9,1.3,8.6,1.3s5.9-.4,7.8-1.3c1.9-.9,2.8-2.3,2.8-4.1s-.4-2.1-1.3-2.9c-.9-.8-2-1.5-3.3-2.1s-2.8-1.1-4.4-1.6c-1.6-.5-3.1-1-4.6-1.6-2.4-.9-4.5-1.9-6.3-2.9-1.8-1-3.3-2.2-4.6-3.6-1.2-1.4-2.2-2.9-2.8-4.7-.6-1.8-1-3.9-1-6.4s.7-6.2,2.2-8.7c1.5-2.4,3.4-4.4,5.9-5.9,2.4-1.5,5.2-2.7,8.4-3.4,3.1-.7,6.4-1.1,9.8-1.1s5.4.2,8.1.6c2.7.4,5.4,1,8.1,1.8v14.3c-2.3-1.4-4.9-2.4-7.5-3.1-2.7-.7-5.3-1-7.9-1s-2.4.1-3.4.3c-1.1.2-2,.5-2.8.9s-1.5.9-1.9,1.6-.7,1.4-.7,2.2.4,2,1.1,2.8c.7.8,1.6,1.5,2.8,2,1.1.6,2.4,1.1,3.8,1.5,1.4.4,2.8.9,4.1,1.4,2.5.9,4.7,1.8,6.7,2.8,2,1,3.7,2.2,5.1,3.6,1.4,1.4,2.5,3,3.3,4.8.8,1.8,1.1,4,1.1,6.6s-.8,6.6-2.3,9.1c-1.5,2.5-3.6,4.6-6.2,6.2-2.6,1.6-5.5,2.7-8.8,3.5s-6.8,1.1-10.4,1.1c-6.6,0-12.7-1-18.3-3Z"/>
    <path class="cls-1" d="M145.5,670.9v-15c3,1.8,6.1,3.2,9.1,4.1,3,.9,5.9,1.3,8.6,1.3s5.9-.4,7.8-1.3c1.9-.9,2.8-2.3,2.8-4.1s-.4-2.1-1.3-2.9c-.9-.8-2-1.5-3.3-2.1s-2.8-1.1-4.4-1.6c-1.6-.5-3.1-1-4.6-1.6-2.4-.9-4.5-1.9-6.3-2.9-1.8-1-3.3-2.2-4.6-3.6-1.2-1.4-2.2-2.9-2.8-4.7-.6-1.8-1-3.9-1-6.4s.7-6.2,2.2-8.7c1.5-2.4,3.4-4.4,5.9-5.9,2.4-1.5,5.2-2.7,8.4-3.4,3.1-.7,6.4-1.1,9.8-1.1s5.4.2,8.1.6c2.7.4,5.4,1,8.1,1.8v14.3c-2.3-1.4-4.9-2.4-7.5-3.1-2.7-.7-5.3-1-7.9-1s-2.4.1-3.4.3c-1.1.2-2,.5-2.8.9s-1.5.9-1.9,1.6-.7,1.4-.7,2.2.4,2,1.1,2.8c.7.8,1.6,1.5,2.8,2,1.1.6,2.4,1.1,3.8,1.5,1.4.4,2.8.9,4.1,1.4,2.5.9,4.7,1.8,6.7,2.8,2,1,3.7,2.2,5.1,3.6,1.4,1.4,2.5,3,3.3,4.8.8,1.8,1.1,4,1.1,6.6s-.8,6.6-2.3,9.1c-1.5,2.5-3.6,4.6-6.2,6.2-2.6,1.6-5.5,2.7-8.8,3.5s-6.8,1.1-10.4,1.1c-6.6,0-12.7-1-18.3-3Z"/>
    <path class="cls-1" d="M211.6,603c-3.1,0-5.7-.9-7.7-2.8-2-1.9-3-4.1-3-6.8s1-5,3-6.8,4.6-2.6,7.7-2.6,5.7.9,7.7,2.6c2,1.8,3,4,3,6.8s-1,5.1-3,6.9c-2,1.8-4.5,2.7-7.7,2.7ZM220.8,672.5h-18.5v-60h18.5v60Z"/>
    <path class="cls-1" d="M232.4,670.9v-15c3,1.8,6.1,3.2,9.1,4.1,3,.9,5.9,1.3,8.6,1.3s5.9-.4,7.8-1.3c1.9-.9,2.8-2.3,2.8-4.1s-.4-2.1-1.3-2.9c-.9-.8-2-1.5-3.3-2.1s-2.8-1.1-4.4-1.6c-1.6-.5-3.1-1-4.6-1.6-2.4-.9-4.5-1.9-6.3-2.9-1.8-1-3.3-2.2-4.6-3.6-1.2-1.4-2.2-2.9-2.8-4.7-.6-1.8-1-3.9-1-6.4s.7-6.2,2.2-8.7c1.5-2.4,3.4-4.4,5.9-5.9,2.4-1.5,5.2-2.7,8.4-3.4,3.1-.7,6.4-1.1,9.8-1.1s5.4.2,8.1.6c2.7.4,5.4,1,8.1,1.8v14.3c-2.3-1.4-4.9-2.4-7.5-3.1-2.7-.7-5.3-1-7.9-1s-2.4.1-3.4.3c-1.1.2-2,.5-2.8.9s-1.5.9-1.9,1.6-.7,1.4-.7,2.2.4,2,1.1,2.8c.7.8,1.6,1.5,2.8,2,1.1.6,2.4,1.1,3.8,1.5,1.4.4,2.8.9,4.1,1.4,2.5.9,4.7,1.8,6.7,2.8,2,1,3.7,2.2,5.1,3.6,1.4,1.4,2.5,3,3.3,4.8.8,1.8,1.1,4,1.1,6.6s-.8,6.6-2.3,9.1c-1.5,2.5-3.6,4.6-6.2,6.2-2.6,1.6-5.5,2.7-8.8,3.5s-6.8,1.1-10.4,1.1c-6.6,0-12.7-1-18.3-3Z"/>
    <path class="cls-1" d="M325.4,671.8c-2.7,1.4-6.9,2.2-12.4,2.2-13,0-19.6-6.8-19.6-20.3v-27.5h-9.7v-13.7h9.7v-12.9l18.5-5.3v18.2h13.5v13.7h-13.5v24.3c0,6.2,2.5,9.4,7.4,9.4s4-.6,6-1.7v13.7Z"/>
    <path class="cls-1" d="M385.8,672.5h-17.5v-8.6h-.2c-4,6.7-10,10.1-17.9,10.1s-10.4-1.6-13.7-5c-3.3-3.3-5-7.7-5-13.2,0-11.6,6.9-18.4,20.7-20.2l16.3-2.2c0-6.6-3.6-9.8-10.7-9.8s-13.9,2.1-20.4,6.4v-13.9c2.6-1.3,6.1-2.5,10.6-3.5,4.5-1,8.5-1.5,12.2-1.5,17.1,0,25.7,8.5,25.7,25.6v35.9ZM368.4,648.1v-4l-10.9,1.4c-6,.8-9,3.5-9,8.1s.7,3.8,2.2,5.2,3.4,2,5.9,2,6.3-1.2,8.5-3.6c2.2-2.4,3.3-5.4,3.3-9.1Z"/>
    <path class="cls-1" d="M458.4,672.5h-18.5v-33.3c0-9.3-3.3-13.9-10-13.9s-5.8,1.2-7.9,3.7c-2.1,2.5-3.1,5.6-3.1,9.4v34.2h-18.5v-60h18.5v9.5h.2c4.4-7.3,10.8-11,19.3-11,13.3,0,19.9,8.2,19.9,24.7v36.7Z"/>
    <path class="cls-1" d="M509.3,671.8c-2.7,1.4-6.9,2.2-12.4,2.2-13,0-19.6-6.8-19.6-20.3v-27.5h-9.7v-13.7h9.7v-12.9l18.5-5.3v18.2h13.5v13.7h-13.5v24.3c0,6.2,2.5,9.4,7.4,9.4s4-.6,6-1.7v13.7Z"/>
  </g>
</svg>